<?xml version="1.0" standalone="no"?>
<svg version="1.0" xmlns="http://www.w3.org/2000/svg"
 width="260.000000pt" height="240.000000pt" viewBox="0 0 260.000000 240.000000"
 preserveAspectRatio="xMidYMid meet">

<g transform="translate(0.000000,240.000000) scale(0.100000,-0.100000)"
fill="#420039" stroke="none">
<path d="M1067 2132 l-217 -127 2 -250 3 -250 60 -36 c33 -19 130 -76 216
-126 l157 -91 216 126 216 126 0 252 0 252 -197 115 c-109 63 -207 119 -218
124 -17 9 -55 -9 -238 -115z m388 -85 l160 -93 0 -198 0 -198 -160 -94 c-88
-52 -165 -93 -170 -91 -6 1 -83 44 -173 96 l-162 94 0 193 0 192 163 96 c89
52 167 95 172 95 6 1 82 -41 170 -92z"/>
<path d="M522 1237 l-212 -121 2 -254 3 -253 220 -124 220 -124 55 31 c30 17
130 73 223 125 l167 95 0 252 0 253 -216 122 c-119 66 -224 121 -233 120 -9
-1 -112 -55 -229 -122z m406 -81 l167 -95 0 -197 0 -197 -165 -94 c-91 -51
-169 -93 -175 -93 -5 0 -84 42 -175 93 l-165 93 0 198 0 197 165 94 c91 51
168 94 173 94 4 1 83 -41 175 -93z"/>
<path d="M1610 1249 c-107 -60 -205 -117 -217 -125 -23 -14 -23 -16 -23 -258
0 -219 2 -244 18 -258 9 -8 110 -67 224 -131 l208 -117 225 127 225 127 0 247
c0 185 -3 249 -12 257 -29 22 -427 242 -440 242 -7 0 -101 -50 -208 -111z
m398 -101 l162 -92 0 -192 0 -192 -170 -96 c-93 -53 -174 -96 -179 -96 -5 0
-86 43 -180 96 l-171 96 0 192 0 192 173 97 c95 54 179 94 187 91 8 -3 88 -46
178 -96z"/>
</g>
</svg>
